<?xml version="1.0" encoding="UTF-8"?>
<svg xmlns="http://www.w3.org/2000/svg" viewBox="0 0 850.39 850.39">
  <defs>
    <style>
      .cls-1 {
        fill: #e8e213;
        mix-blend-mode: multiply;
      }

      .cls-2 {
        isolation: isolate;
      }
    </style>
  </defs>
  <g class="cls-2">
    <g id="Calque_1" data-name="Calque 1">
      <path class="cls-1" d="M517.32,850.56c-2.77-5.25-5.47-10.48-8.92-15.32-6.71-9.42-14.05-18.57-21.04-27.92-6.83-9.14-11.85-16.36-17.31-26.37-9.97-18.27-16.01-27.97-30.93-42.51-11.33-11.05-22.08-22.78-33.38-33.82-9.41-9.19-20.63-16.25-31.31-23.89-2.55-1.82-4.57-3.95-6.91-5.57-3.83-2.66-8.57-4.69-12.6-7.56-13.63-9.69-30.9-25.61-39.29-39.91-.51-.88-1.54-1.45-1.95-2.37-2.88-6.45,1.74-21.57,3.1-28.8,1.73-9.15,2.73-18.58,4.72-27.44,1.4-6.26,5.3-15.32,3.58-21.38-.69-2.45-3.15-6.53-2.44-9.14.32-1.17,3.93-5.19,4.86-7.16,1.11-2.34,1.34-5.78,2.15-7.33.32-.61,1.3-.64,1.7-1.78,1.75-5-.6-9.62-.07-13s3.7-7.5,4.39-11.01c2.42-12.32,5.96-16.16,10.98-26.94.66-1.42,1.05-3.81,1.83-5.37.51-1.03,1.72-1.59,2.08-2.72.99-3.12-.32-13.7-.81-17.48-3.98-31.07-10.67-58.16-19.74-87.78-2.99-9.76-6.68-18.49-8.94-28.5-.59-2.62-1.44-5.34-1.93-7.67-2.75-13.07-3.75-25.49-7.59-38.49-2.1-7.09-5.02-13.97-7.37-20.94l1.02-.58c-2.23-6.02,3.65-5.89,7.5-7.78,6.57-3.23,11.01-8.99,18.38-11.38,1.7-.55,6.83-1.92,8.45-2.14,1.94-.26,2.6,1.06,4.26,1,1.96-.07,8.44-2.57,10.28-3.7,1.17-.71,2.02-2.19,3.45-2.79,4.19-1.75,10.21-2.97,14.16-5.55,1.14-.75,1.54-1.81,2.14-2.15,1.46-.83,5.34-2.03,6.96-1.93,2.55.15,1.86,1.58,2.89,3.08,4.87,7.08,9.43,14.21,14.12,21.4,2.74,4.19,7.41,9.44,9.53,13.51,1.15,2.21,1.25,4.46,2.75,6.85,4.39,6.97,12.79,16.31,18.16,23.12,5.98,7.59,11.97,14.66,18.3,22.02,5.18,6.03,9.83,12.92,15.82,18.26,11.39,10.16,23.07,20.28,34.81,29.99,2.52,2.09,7.6,5.14,9.38,7.42,1.61,2.06,1.81,4.51,2.84,6.76.47,1.04,1.68,1.86,1.98,2.82,2.46,7.89.36,18.08,1.14,25.74,1.37,13.39-.44,19.42-2.26,32.25-.3,2.14-1.53,7.77-1.09,9.39.14.53,1.06.52,1.22.78.26.43-.4,1.31-.19,2.08.16.58.95.9,1.13,1.32.8,1.85-1.61,7.99-1.13,11.69.21,1.62,1.13,2.76,1.34,3.94.48,2.73.48,7.74,1.1,9.94.16.56,1.66,2.3,2.19,3.57,1.45,3.5,1.83,7.15,3.53,10.87,3.13,6.85,8.57,14.88,10.64,22,1.84,6.34,2.59,13.56,4.43,20.05,3.26,11.52,7.84,23.64,11.41,35.15,3.21,10.35,6.41,20.85,9.11,31.21,2.63,10.09,7.41,21.31,8.87,31.45,1.69,11.64,3.69,23.71,4.93,35.39.89,8.41.59,17.02,1.45,25.43.49,4.79,2.35,10.76,2.41,15.39s.14,4.63.92,9.12c.93,5.38.83,12.15,1.47,17.73,2.91,25.58,5.13,51.49,8.16,77.28,1.49,12.69,4.15,25.37,4.31,38.17h-69.12Z"/>
    </g>
  </g>
</svg>