<?xml version="1.0" encoding="UTF-8"?>
<svg id="Calque_1" data-name="Calque 1" xmlns="http://www.w3.org/2000/svg" viewBox="0 0 850.39 850.39">
  <defs>
    <style>
      .cls-1 {
        fill: #e52521;
      }
    </style>
  </defs>
  <path class="cls-1" d="M398.01,367.39c-.13.53-.66.84-1.19.73-2.03-.45-3.58-1.38-5.88-1.89-2.65-.58-1.71-.52-2.24-.92-.14-.1-1.69-.93-2.55-1.14-3.67-.88-24.65-6.05-25.93-7.67-.32-.41-1.17-.31-1.26-.58-1.47-.42-2.17-.36-1.5-.28-2.27-.84-2.83-.66-2.55-2.31l1.47-8.32c2.54-13.03,7.8-23.83,11.76-36.21,13.6-42.58,23.02-87.57,37.7-129.51,4.7-13.44,12.08-26.5,18.37-39.19,5.7-11.52,8.34-16.89,16.76-26.76,1.23-1.44-.01-1.58,2.74-3.43.04-2.09,1.79-1.83,2.06-2.06,1.4-1.21,1.75-1.61,3.43-2.74.79-.54,1.02-.77,2.06-1.37l.22-.22c.13-.16.27-.36.46-.46,3.68-2.02,7.69-3.43,11.65-4.8,1.18-1.92,2.78-2.38,4.8-2.74.22-.04.46.03.69,0,.58-1.23,1.92-.98,2.74-1.37.45-.21.92-.46,1.37-.69,7.36-3.64,16.08-7.91,23.63-10.97,5.43-2.21,19.33-8.03,24.33-8.9l1.37-.69h.69l11.65-6.85c2.23-1.84,5.85-1.83,8.22-2.74.2-.08.49.08.69,0l.26-.26c.13-.17.27-.36.43-.43.42-.19,2.61-1.27,2.74-1.37l.69-.69c.37-.3.73-.87,1.37-1.37.54-.42,1.01-1.29,2.06-2.06.25-.19.39-.78,1.17-1.2,1.19-.65,7.99-3.22,8.42-1.19.42,1.96-8.71,2.66-8.22,6.5.15.13.73,2.13,1.35,3.23,1.75,3.11,3.48,6.17,5.5,9.1,6.66,4.38,11.87,9.8,19.04,13.51,22.92,11.86,52.77,12.74,75.01-.68l8.73-4.61c1.55-1.48,3.23-2.69,4.8-4.11,1.66-1.5,3.82-2.54,4.8-3.43.09-.08,1.16-1.71,1.37-2.06,3.46-5.72,4.16-7.28,6.21-13.88.19-.62,2.01-.4,1.33-2.82-2.6-.87-.49-1.8-.62-3.45-.06-.76-1.75.07-1.44-1.08,4.91-.9,8.26,6,11.67,7.16,2.13.72,3.62.79,6.14,1.74,8.78,3.32,20.58,11.46,30.15,15.76,4.6,2.07,10.38,4.45,13.98,4.79l.52,1.21,1.51-.49c10.59,4.33,22.65,10.54,31.95,17.1,6.68,4.71,10.9,6.93,15.64,14.17,7.66,11.69,12.43,25.23,17.93,37.91,3.7,8.53,7.82,15.17,9.98,24.65,1.86,8.19,3.84,15.55,6.47,24.69,8.02,27.88,15.72,55.87,24.36,83.57.62,5.24.22,10.54.31,15.8.11,6.59-.12,13.24.08,19.8.23,7.25.26,14.5-.04,21.75-.27,6.49.65,15.47-.05,22.18-.42,4.1-4.2,3.17-7.54,4.11-3.74,1.06-13.78,4.76-16.8,4.73-2.49-.03-5.16-2.53-10.61-1.99-2.95.29-7.74,1.48-10.96,2.06-7.9,1.41-19.15,5.39-26.72,5.48-.44,0-.94.05-1.37,0-.89.27-1.88.35-2.74.69-.39.15-.79.49-1.37.69-6.16,2.1-7,.25-11.65,5.48-.21.24-.45.47-.69.69,0,.46,0,.91,0,1.37,0,.42,1.35,1.64-.69,2.74.03,1.14,0,2.29,0,3.43,0,2.23.16,4.66,0,6.85.7.69,1.65,1.6,1.89,2.56.98,3.91.05,8.33.13,12.15.24,10.97.04,21.6.03,32.58,2.08-.38,1.32,1.05,1.37,2.37.13,3.13-.67,6.32-.69,8.6-.04,3.86.47,7.2.69,10.96.16,2.8.59,5.6.69,8.22.04,1.14-.03,2.29,0,3.43v2.06c.02.91-.03,1.83,0,2.74.1,2.95-.2,5.98,0,8.91.06.91-.06,1.83,0,2.74.02.32.62,1.37.69,2.74.85,16.81,2.54,34.11.83,51.06-.47,4.65-.52,2.32-1.88,5.8-1.93,4.93-1.95,12.56-3.88,17.38-.54,1.36-1.76.96-1.93,1.14-.68.73-1.08,2.1-2.06,2.74.04.05.06,1.11,0,1.37-.21.94-.94.96-1.37,1.37-.53.51-1.44.89-2.06,1.37.63,2.52-4.53,6.57-4.69,6.97-.32.8.89,1.97.51,2.51-.22.31-1.38.18-2.06,1.74-.77,1.75-.34,3.71-.77,5.4-1.17,4.59-5.13,15.5-5.25,19.42-.1,3.22,4.61,27.05,5.73,31.15.61,2.26,3.83,7.06,3.54,8.2-.4.64-.81,1.68-1.4,2.1-.7.49-10.53,1.87-12.36,2.03-4.23.37-10.77.45-14.76-.03-1.02-.12-1.86-.66-2.06-.69-.23-.03-.46.02-.69,0-1.27-.13-3.57-.17-4.8,0-8.02,1.08-11.94,1.02-19.87,1.37-.23.01-.46-.01-.69,0-14.43.66-24.1,2.09-38.37-.69-.22-.04-.47.05-.69,0-.56-.11-1.41.01-2.06,0-2.5-.06-4.09.53-6.17.69-9,.69-16.3.9-25.35,0-2.04-.2-3.37-.24-5.48-.69-1.14-.24-2.23-.69-3.43-.69-1.25.26-3.34-.06-4.8,0-2.04.09-4.12-.04-6.17,0-2.73.05-5.49-.07-8.22,0-2.96.08-5.95-.05-8.91,0-.23,0-.46,0-.69,0-10.2.13-19.91.24-30.15,0-2.8-.07-6.07-.64-8.22-.69-5-.11-10.02.14-15.07,0-4.1-.12-8.24.13-12.33,0-4.29-.13-8.42-.53-12.65-.73-3.14-.15-5.74,1.28-8.59-.64l-.13-.04c-2.52.23-4.67-.6-6.03-.65-.91-.03-1.83.04-2.74,0-2.84-.14-5.5-.43-8.22-.69-5.08-.48-7.96-1.46-12.33-2.06-.18-.02-2.38.08-3.43,0-3.44-.26-6.15-1.09-9.59,0-.05-1.13.06-2.29,0-3.42-.16-2.98-1.05-9.7-.74-12.04.16-1.24,1.21-.86,1.4-1.48,2.35-7.91-.65-19.93.04-28.63.42-5.23,2.08-11.7,2.73-17.15.66-5.55.16-11.48,2.06-16.78-.35-19.59-1.11-39.43-1.4-58.57-.14-9.23.71-19.02,2.11-28.13.2-1.28-.87-2.78,1.34-2.39.02-.68-.01-1.37,0-2.06,0-.09-.73-.69-.72-1.66,0-1.76,1.2-3.87.72-5.89h1.37c0-.45.04-.92,0-1.37-.05-.55-1.33-2.12-.68-3.43h1.37c.15-4.95,1.39-10.72,2.06-15.76.57-4.29,1.58-7.02,1.37-11.65-.09-2.01-.58-3.67-.69-5.48-.07-1.24.03-2.17,0-2.74-.02-.45.02-.92,0-1.37-.49-9.29-.04-16.91,0-26.04.05-9.64-.96-18.07-1.37-27.41-1.9-.92-5.04-2.8-6.85-3.43-1.27-.44-3.32-.94-4.8-1.37-11.49-3.35-23.1-6.84-34.26-10.28-2.94-.91-8.11-1.78-11.65-2.74-.59-.16-1.16-.64-1.37-.69-.98-.21-2.39.18-3.43,0l-.72-.02-1.12,4.62Z"/>
  <path class="cls-1" d="M763.67,644.46c-.69-5.42,0-11.25-3.26-16.25-.43-.66.08-1.24-1.53-.88-.1,1.81.12,3.67,0,5.48-.05.68-.73,1.58-.71,3.03.04,2.84.82,7.73,3.45,9.3.07.53.13,8.19,2.05,6.17-.25-1.69,1.35-3.62,1.23-5.08-.08-.93-1.2-1.63-1.22-1.78Z"/>
</svg>