<?xml version="1.0" encoding="UTF-8"?>
<svg id="Calque_1" data-name="Calque 1" xmlns="http://www.w3.org/2000/svg" viewBox="0 0 850.39 850.39">
  <defs>
    <style>
      .cls-1 {
        fill: #e52521;
      }
    </style>
  </defs>
  <path class="cls-1" d="M820.31,310.88c-5.69-20.15-15.24-70.64-23.57-85.71-.41-.74.25-1.42-1.43-2.86-.14-.9.21-2.09,0-2.86-.2-.72-.97-2.25-1.43-2.86-.84-10.76-4.01-21.2-7.14-31.43-.53-1.72-.47-3.08-1.43-5.71-4.69-12.82-12.02-24.04-18.57-35.71-.32-.57.06-2.63-.81-4.13-3.97-6.8-10.37-19.34-17.76-21.58.81-3.55-1.92-2.87-3.76-4.02-21.77-13.59-44.99-22.25-67.71-33.78-17.07-8.66-22.63-15.12-42.81-17.91-4.5-.62-8.39-.96-12.86-1.43-16.25-1.72-28.96-1.76-44.94-1.37-7.86.19-15.78-.26-23.63-.06-2.38-.05-4.76.04-7.14,0-18-.33-14.88,1.18-28.04,8.39-29.19,15.99-63.49,26.26-90.53,45.89-38.5,27.97-51.73,107.96-64.36,152.06-8.78,30.67-22.45,64.54-29.26,95.02-.74,3.3-2.64,11.82-1.44,14.32,1,1.52,2.51,2.32,4.06,3.16,9.71,5.24,31.02,11.51,42.43,15.43,4.57,1.57,7.47,2.84,12.86,4.29,6.18,1.66,12.22,3.33,18.57,4.29,7.64,1.15,15.39.92,22.86,2.86-.09,1.9.09,3.82,0,5.71s.09,3.82,0,5.71c-.61,13.35-1,26.63-1.43,40-.18,5.69.11,11.45,0,17.14-.04,1.9.03,3.81,0,5.71-.09,6.07-1.44,14.03-1.43,21.43.01,6.65.08,13.35,0,20-2.35,12.54-1.61,26.42-1.45,39.3.03,2.42-.92,6.35,1.45,7.84,0,.48,0,.95,0,1.43-.24,25.62.71,51.49,0,77.14-.3,10.92-4.12,21.49-1.2,32.64,10.35,4.63,20.51,10.29,32.09,11.47,5.25.53,7.75-.94,11.35-1.09.67-.03.41,2.41,1.57,2.68,12.05,2.79,24.22,1.08,36.19,1.44,1.43.04,2.86-.04,4.29,0,11.81.36,23.68,1.27,35.71,1.43,3.33.04,6.67-.03,10,0,2.18.02,5.28-1.44,8.57-1.43,1.43,0,2.86,0,4.29,0,4.14,0,11.27,1.45,17.14,1.43,27.82-.09,52.39-1.06,80-2.86,23.35-1.52,50.17-.53,72.21-11.35,11.68-5.73,8.45-10.75,7.78-21.51-.85-13.79-2.37-27.64-2.86-41.43-.05-1.43.04-2.86,0-4.29-.03-.95.02-1.91,0-2.86-.19-7.53.19-15.2,0-22.86-1.11-43.66-8.13-86.86-10.06-130.65-.78-17.8.78-35.83.06-53.63,3.33,0,6.67,0,10,0,2.37,0,4.78.11,7.14,0,3.58-.16,8.55,1.32,10-2.86,5.05.28,7.07-.64,11.43-1.43,21.17-3.84,43.02-15.4,62.93-23.81,1.76-7.16-14.82-53.75-17.93-64.76Z"/>
</svg>