<?xml version="1.0" encoding="UTF-8"?>
<svg xmlns="http://www.w3.org/2000/svg" viewBox="0 0 850.39 850.39">
  <defs>
    <style>
      .cls-1 {
        fill: #cc1619;
        mix-blend-mode: multiply;
      }

      .cls-2 {
        isolation: isolate;
      }
    </style>
  </defs>
  <g class="cls-2">
    <g id="Calque_1" data-name="Calque 1">
      <path class="cls-1" d="M57.77,850.56c2.02-4.9,3.96-9.9,6.15-14.73,14.67-32.35,30.69-64.24,45.94-96.14,4.52-9.46,8.06-18.97,11.96-28.32,5.43-13,11.69-27.32,14.89-40.84,2.07-8.75,8.84-18.26,12.28-26.6,2.01-4.87,2.86-10.48,4.65-15.51,3.96-11.1,8.33-17.17,8.8-29.6.75-19.86-1.58-40.81-4.39-60.45-3.08-21.57-8.9-42.45-12.72-63.71-5.34-29.71-15.01-58.25-23-87.29-2.52-9.17-1.99-10.66-7.23-19.17-7.39-12-16.71-22.93-22.04-36.04-7.94-19.51-7.74-38.37-12.84-58.2-3.54-13.76-12.42-31.23-20.12-43.24-3.27-5.11-4.66-7.89-7.5-13.14s-7.44-10.74-8.25-16.74c-.23-1.69,1.09-4.61,2.41-5.7,1.58-1.32,4.05-1.49,5.77-2.39s3.35-2.39,4.91-3.25c15.6-8.52,31.03-14.28,48.12-19.56,1.28-.39,2.96-1.71,3.94-1.86,1.08-.17,1.84.48,3,.21,1.47-.34,4.47-2.3,6.24-2.92,13.49-4.78,27.35-7.22,41.2-10.64,14.9-3.68,30.07-7.44,44.8-11.31,13.35-3.51,25.98-8.3,39.41-11.04,6.43-1.31,29.53-15.52,34.91-20.29,14.95-13.25,25.94-30.58,40.47-44.25,4.29-4.03,11.25-10.21,16.56-12.49,16.87-7.23,45-4.16,62,1.53,3.56,1.19,7.27,2.3,10.72,4.16,4.51,2.43,10.99,8.84,15.23,10.24.76.25,1.2-.17,1.89-.24,1.79,12.29,4.89,25.41,9.28,37.05,3.29,8.72,8.44,17.71,17.13,21.75,13.66,6.35,33.01,12.27,47.61,17.19,30.21,10.17,61.26,17.51,91.47,27.09,13.75,4.36,30.5,11.29,43.08,18.84,6.45,3.87,9.08,7,6.71,14.9-2.88,9.6-9.57,18.82-12.59,28.69-1.15,3.74-1.94,4.11-3.25,7.31-4.71,11.5-10.86,24.98-13.94,36.94-4.59,17.81-10.17,35.2-15.93,52.71-3.41,10.36-15.69,29.9-23.18,37.78-1.26,1.33-4.57,2.9-5.09,4.55-.41.8.16,1.77.02,2.47-8.08,39.42-19.22,78.08-28.39,116.95-6.65,28.17-14.37,58.74-15.52,87.68-.28,6.95-.89,20.24,1.57,26.31,2.91,7.22,7.09,12.85,10.7,19.54,14.08,26.01,24.44,53.25,37.54,79.58,13.58,27.29,28.55,54.06,43.07,80.77,2.69,4.96,6.81,10.41,9.16,15.32,3.57,7.47,5.65,16.38,10.53,23.55l13.21,22.55h-250.08c-7.79-7.38-15.61-14.69-22.19-23.17-9.48-12.21-13.86-22.7-21.23-35.89-.79-1.41-2.83-4.96-4.35-5.25-1.28-.24-4.66-.2-5.77.44-3.79,2.17-9.57,17.47-11.96,22.12-3.83,7.44-10.57,18.53-16.11,24.69-2.72,3.03-5.82,5.53-8.86,8.9-2.31,2.57-5.4,4.66-6.49,8.15H57.77Z"/>
    </g>
  </g>
</svg>