<?xml version="1.0" encoding="UTF-8"?>
<svg xmlns="http://www.w3.org/2000/svg" viewBox="0 0 850.39 850.39">
  <defs>
    <style>
      .cls-1 {
        isolation: isolate;
      }

      .cls-2 {
        fill: #cd2321;
        mix-blend-mode: multiply;
        opacity: .7;
      }
    </style>
  </defs>
  <g class="cls-1">
    <g id="Calque_1" data-name="Calque 1">
      <path class="cls-2" d="M420.97,120c1.25-3.35,3.12-5.71,6.39-7.29,3.45-1.66,8.72-4.61,11.9-5.86,8.29-3.25,20.63-3.72,27.95-9.49,3.41-2.7,2.46-5.52,2.72-9.29.05-.72-.37-1.39.71-1.19,1.99,1.78,5.78,4.83,6.39,7.54,1.02,4.57.16,12.68.59,17.65,1.44,16.91,12.19,19.72,25.93,25.43,11.14,4.63,22.71,8.16,33.91,12.65,6.44,2.59,15.58,7.65,22.54,8.2,1.29.1,3.22-.54,3.72-.39.52.16.62,1.03.94,1.23,1.76,1.05,3.1.82,4.64,1.36,14.65,5.19,29.08,9.12,42.95,16.57,5.62,3.02,13.23,5.08,13.69,12.73.23,3.85-5.14,11.13-7.37,14.69-11.11,17.75-16.56,37.07-24.06,56.58-6.8,17.68-14.96,36.01-24.34,52.46-5.26,9.23-10.88,16.4-14.45,26.83-1.04,3.04-1.79,8.35-3.01,10.91-.45.95-2.19,1.87-2.82,2.94-4.11,6.92-4.87,13.22-7.16,20.68-1.6,5.22-4.1,10.11-5.08,15.56-1.42,7.85-.47,15.91-1.62,23.82-2.61,18.05-6.75,31.26-5.64,50.57.69,12.04,5.28,23.24,9.24,34.44,8.4,23.74,19.29,46.93,30.24,69.6,1.01,2.09,1.71,4.17,2.88,6.24,2.62,4.67,3.69,5.18,5.3,10.54,1.72,5.71,6.23,10.61,9.09,15.87,5.23,9.61,9.64,19.86,15.56,29.08,3.72,5.8,8.55,10.75,12.2,16.6,8.45,13.52,14.27,31.93,12.39,47.93-.09.26-3.38,3.01-3.9,3.3-5.1,2.87-14.13,3.86-18.74,6.7-2.02,1.24-5.51,4.01-4.64,6.65-5.04-.1-10.1.12-15.14.02-32.04-.63-65.85,2.67-94.46-14.02-2.04-1.19-4.17-3.52-6.13-4.43-13.95-6.43-21.96-11.46-32.83-22.37-6.02-6.04-21.77-17.84-23.19-25.82-.16-.88.41-1.67.15-2.48-.46-1.41-4.61-5.65-5.72-7.26-6.11-8.86-11.78-22.17-16.86-32.1-1.14-2.23-1.9-5.01-2.97-7.1-.58-1.14-1.9-.82-2.45.2l-6.12,15.96c-1.59,1.78-2.34,4.04-3.54,6.06-4.06,6.81-11.35,13.25-11.3,21.34-9.79,10.85-18.01,23.8-29.55,32.85s-26.58,20.04-40.31,24.01c-3.73,1.08-4.84,3.5-7.31,4.69-2.93,1.41-12.74,2.88-16.54,3.62-20.86,4.01-40.34,6.51-61.82,4.94-7.84-.57-17.37-4.39-25.31-6.37-8.53-2.13-30.79-6.99-36.63-12.81-.82-.82-.55-1.94-1.14-2.72-.34-.46-1.41-.53-1.5-.99-.25-1.18.84-1.93.97-2.83,1.19-8.05,2.28-8.57,5.19-15.45,9.31-22.04,20.13-42.92,30.71-64.33,2.62-5.29,5.43-12.38,8.17-17.27,3.84-6.85,8.09-15.15,11.02-22.58,8.82-22.4,20.16-43.88,28.66-66.38,14.14-37.41,8.87-69.44,2.68-107.28-2.9-17.73-6.26-39.32-11.68-56.48-.71-2.24-3.03-6.36-3.25-8.28-.29-2.57,1.6-4.72,2.3-7.35,7.38-27.92-1.74-61.45-6.94-89.27-3.71-19.81-7.27-38.5-16.84-56.6-.63-1.19-4.67-8.53-5.08-8.84-.48-.36-.84-.53-1.45-.47l-1.25.72c-.72,1.09-7.92,14.71-8.61,14.18l-5.17-18.12c-.54-5.74-2.87-11.94-.64-17.56.97-1.13,2.73-.3,3.56-.47.63-.13,1.27-.95,2.1-1.19,5.62-1.63,11.1-2.19,16.57-3.59,1.41-.36,3.59-1.84,4.63-2.01,1.11-.18,2.67.52,4.05.21,1.26-.28,5.49-2.4,8.1-3.02,5.77-1.38,12.25-1.9,17.81-3.2.55-.13.56-1.15,1.01-1.48,1.25-.94,8.37-.33,10.61-.45,18.35-1.03,36.82-2.04,55.07-3.97,7.08-.75,12.66-4.55,18.96-7.44.72-.33,1.25-1.25,1.92-1.44,3.92-1.14,5.98.79,10.24-3.2.77-.72,5.37-6.29,5.84-7.12,1.26-2.22.88-4.16,1.57-6.11,2.43-6.85,7.07-13.75,7.53-21.27l4.01-3.2c1.16-.26,3.09,6,3.85,7.18,1.65,2.54,3.93,2.99,6.14,4.42,8.8,5.7,18.7,10.15,28.28,14.44,6.43,2.88,11.03,5.9,15.71,11.65,2.24,2.76,3.13,5.81,5.29,8.38Z"/>
    </g>
  </g>
</svg>