<?xml version="1.0" encoding="UTF-8"?>
<svg xmlns="http://www.w3.org/2000/svg" viewBox="0 0 850.39 850.39">
  <defs>
    <style>
      .cls-1 {
        fill: #ada921;
        mix-blend-mode: multiply;
      }

      .cls-2 {
        isolation: isolate;
      }
    </style>
  </defs>
  <g class="cls-2">
    <g id="Calque_1" data-name="Calque 1">
      <path class="cls-1" d="M258.61,850.56c5.8-12.05,13.04-23.71,18.64-35.83,6.45-13.96,13.19-29.01,15.76-44.23,4.29-25.47,4.57-51.39,5.89-77.14.34-6.52.03-13.14.49-19.67.67-9.38,3.78-24.65,2.28-33.49-.31-1.84-2.04-3.86-2.18-5.5-.58-6.69.67-22.48,2.43-29.03,5.66-21.07,11.58-41.99,18.36-62.75,2.09-6.41,1.71-8.57,5.9-14.25,2.77-3.76,5.38-15.73,8.94-18.9.65-.58,1.62-.36,2.13-.75,2.38-1.81,5.4-6.42,7.94-8.86.5-.48,1.47-.51,2.18-1.17,1.77-1.66,5.56-8.21,7.13-10.62,1.32-2.02,4.52-14.37,4.98-17.11.2-1.2,1.33-1.32-.1-3.44.15-.65,1.72-.93,2.13-1.73.08-.16,1.09-3.04,1.12-3.21.09-.61-.79-1.07-.83-1.79-.26-4.24.26-9.64-.05-13.94-.2-2.73-1.69-5.31-1.86-8.22-.31-5.37.24-10.47-.56-16.23-.4-2.87-1.7-6.01-1.88-9.17-.09-1.61.58-3.34.5-4.24-.03-.3-.85-.41-1.14-.9-1.39-2.33-.7-5.19-.81-7.81-.9-22.57-2.46-55.55,8.45-76.03,12.82-24.06,34.41-37.01,54.41-54.04,4.48-3.81,8.38-8.64,12.72-12.24,3.2-2.65,6.89-4.21,9.82-7.45,7.68-8.48,17.63-15.29,25.44-23.99,3.53-3.94,6.32-8.5,10.06-12.25-.44,1.79,1.4,1.64,2.67,2.42,1.07.02.93-1.5,2.1-1.74,1.89-.39,3.47,1.58,4.99,2.29,6.57,3.06,10.55,4.54,16.3,8.89,2.35,1.77,3.36,1.04,5.34,1.62s5.93,2.59,7.93,1.65c.59-.28,1.23-1.56,1.68-1.56.2,0,.8.72,1.46.83,9.82,1.62,20.94,8.97,30.34,13.32,1.28.59,3.25.37,3.79,1.89.77,2.14-1.35,2.91-2.17,4.32-12.49,21.62-8.97,46.12-11.12,70-1.27,14.04-3.44,32.4-6.85,45.95s-5.9,25.84-8.14,39.86c-2.45,15.38-4.06,30.59-5.11,46.25.51,10.06,4.99,18.96,9.59,27.74l3.25,1.55c.22,3.44-.09,7.57.58,10.94.38,1.9,1.59,3.55,1.84,5.36.57,4.16-.62,8.95.75,13.17,1.22,3.74,8.52,11.04,8.89,13.71.31,2.23-1.73,3.43-2.19,4.98-.74,2.49.71,13.54.76,17.04.04,2.63-.77,6.05-.53,8.2.11.94,2.98,4.99,3.75,6.81,2.15,5.03,3.19,7.88,1.45,13.22-6.3,19.26-24.82,30.4-36.82,45.24-20.67,20.6-43.83,38.3-63.83,59.49-11.95,12.66-24.87,26.75-34.93,40.89-14.53,20.46-28.47,41.42-42.41,62.21-9.45,14.09-18.72,34.44-20.46,51.53-.24,2.35.13,4.73-.12,7.08-.38,3.53-1.53,7.39-2.34,10.86h-88.75Z"/>
    </g>
  </g>
</svg>