<?xml version="1.0" encoding="UTF-8"?>
<svg xmlns="http://www.w3.org/2000/svg" viewBox="0 0 850.39 850.39">
  <defs>
    <style>
      .cls-1 {
        isolation: isolate;
      }

      .cls-2 {
        fill: #f1e623;
        mix-blend-mode: multiply;
      }
    </style>
  </defs>
  <g class="cls-1">
    <g id="Calque_1" data-name="Calque 1">
      <path class="cls-2" d="M189.68,850.56c.54-14.31.2-28.63.46-42.98.5-27.53,1.94-55.06,2.88-82.56.52-15.36-.42-30.68.04-46.04.84-28.01,4.75-55.75,7.18-83.53,1.64-18.82.51-37.67,1.03-56.58.44-15.85,1.74-31.72,2.33-47.59.55-14.68-.68-29.42-.02-44.18.63-14.16,4.32-28.12,5.29-41.75.71-9.91-3.23-24.66,5.8-31.14,2.98-2.14,4.75-1.58,7.66-2.43,27.9-8.17,54.21-17.79,82.6-24.88,4.13-1.03,20-5.54,22.62-7.61.74-.59,2.71-3.08,3.91-4.25,6.99-6.77,16.13-16.54,21.54-24.53,7.45-11.01,7.17-20.11,23.52-21.11,3.53-.22,6.88.59,10.1.54,17.78-.27,35.88-1.72,53.72-.03,10.14.96,15.42,2.51,23.5,8.65,13.96,10.61,26.64,22.87,38.59,35.31,5.76,6,5.19,7.2,13.84,10.15,23.54,8.02,47.14,16.42,70.62,24.86,6.08,2.19,12.79,4.29,18.72,6.71,2.17.88,4.07,1.68,5.53,3.59.43-1.49,1.31-1.06,2.64-.72,4.54,1.15,7.24,7.25,7.67,11.52.92,8.99-.54,19.56,0,28.8.81,13.63,3.35,27.25,4.3,40.82,3.27,46.6,2.65,93.45,1.43,140.13-.53,20.43,4.24,42.14,6.68,62.48,3.89,32.48,4,65.14,4.88,97.84.98,27.75-.64,56.92.92,84.52.11,1.89.64,4.1.98,5.98h-65.72c.98-4.21-1.35-6.95-2.27-10.45-2.39-9.07-4.12-18.57-6-27.59-2-9.58-5.89-23.28-6.15-32.76-.06-2.26.86-4.47.55-6.76-.13-.95-1.01-.47-1.04-1.39-.14-3.82.46-7.1-.01-11.48-2.58-24.1-8.82-47.55-9.55-72.04-.25-8.31.31-16.69.04-25-.46-14.24-2.41-28.4-1.44-42.69.04-.62.33-2.02-.73-1.7l-2.16,15.13c-3.04,18.11-6.9,35.58-5.78,54.26.28,4.72,3.26,14.98,1.58,18.82-.31.71-1.25,1.2-1.46,1.9-.32,1.11.17,1.98-.55,3.29-1.92,3.46-25.18,16.09-29.88,17.62-42.86,13.96-88.98,13.36-133.99,12.37-4.27-.09-9.72-1.07-13.9-1.03-1.34.01-2.45,1.05-2.81.98-.83-.15-.98-1.7-1.61-1.89-.33-.1-5.13-1.06-5.35-.9-.16.12-.19.93-.52,1.16-.65.45-9.43-1.41-10.36-2.17-2.55-2.08-2.21-1.28-5.57-2.08-2.81-.67-5.69-1.24-8.44-2.11-5.44-1.73-10.54-4.77-15.93-6.37l.48,1.43c-1.34-.14-4.02-1.2-4.57-2.42-.24-.54.25-1.21.17-1.35-.35-.59-9.78-5.94-11.45-7.49-.82-.77-8.19-9.68-8.4-10.31-3.66-10.87-1.48-20.77-2.11-31.96-.43-7.56-2.01-15.28-3.35-22.56-.31-1.67.51-3.69-1.22-5.01-3.54,5.56-2.43,13.1-3.12,19.43-2.79,25.45-5.07,50.84-7.19,76.33-.19,2.29.32,5.08.02,7.22-.44,3.14-1.87,7.37-1.91,10.6-.02,1.27.94,2.02.93,2.83-.02.91-1.52,1.69-1.81,2.97-.36,1.6.08,3.45-.16,5.12-2.59,18.21-6.82,38.44-10.63,56.57-1.51,7.21-4.01,14.19-5.15,21.49h-62.36ZM281.31,646.08v-7.92c0-.75-1-2.79-.48-4.08-.6-.8-.87.05-.96.71-.44,3.34,1.01,7.1.48,10.58l.96.71Z"/>
    </g>
  </g>
</svg>