<?xml version="1.0" encoding="UTF-8"?>
<svg xmlns="http://www.w3.org/2000/svg" viewBox="0 0 850.39 850.39">
  <defs>
    <style>
      .cls-1 {
        isolation: isolate;
      }

      .cls-2 {
        fill: #c11718;
        mix-blend-mode: multiply;
      }
    </style>
  </defs>
  <g class="cls-1">
    <g id="Calque_1" data-name="Calque 1">
      <path class="cls-2" d="M164.51,850.56c.92-5.95.17-12,.48-18,.1-1.91.84-4.33.95-6.25,2.59-44.51,3.48-89.73,8.2-133.88,3.65-34.17,8.09-68.48,12.49-102.71,2.22-17.23,3.43-33.07,4.76-50.44.34-4.4,1.67-9.52,1.93-13.91,1.65-27.76-.73-56.4,3.23-84.13,1.35-9.43,3.86-18.86,4.86-28.26.76-7.1-.57-19.04,2.57-24.79,1.11-2.04,2.75-3.89,5.11-4.41,4.88-1.08,9.65-2.52,14.64-3.68,13.7-3.19,29.68-5.98,42.92-10.36,9.24-3.05,16.52-7.76,25.1-11.86,10.76-5.14,21.98-9.14,33.15-13.41,2.21-.85,4.21-.69,5.41-3.71,3.6-9.06,10.82-16.84,14.54-26.26,2.95-7.47,2.92-19.48,13.55-18.84-1.68,6.95-1.78,12.59,2.2,18.67,6.1,9.31,29.09,24.23,39.24,29.88,1.47.82,6.97,3.79,8.24,3.79.97,0,8.01-3.38,9.37-4.1,7.76-4.1,16.85-10.59,23.74-16.1,3.13-2.5,9.66-7.7,12.02-10.54.95-1.15,4.23-6.85,4.42-7.99.4-2.39-.67-8.21-.34-11.44.11-1.06.39-2.12.71-3.13l.92-.45c1.3-.03,4.82,1.94,5.82,2.85,5.02,4.59,5.74,11.45,8.69,17.23,4.51,8.85,11.32,17.23,16.28,25.96l2.44,4.28c6.53,2.6,14.09,3.97,20.61,6.27,1.81.64,5.52,3.15,6.81,3.32,1.17.16,1.92-1.32,3.19-.87.79.28.7,1.58,1.26,2.13.94.93,15.86,6.46,18.47,7.45,16.39,6.19,33.84,11.22,50.56,16.16.42.13,3.31,1.24,3.45,1.36.61.46.37,1.55.49,1.67.19.19,3.8-.86,5.41-.37,1.81.55,6.2,5.56,6.91,7.48,1.65,4.49.74,9.26,1.26,13.71,3.04,26.09,5.26,45.9,3.22,72.56-2.16,28.29.04,56.68,2.41,84.92.6,7.17,1.72,14.83,2.37,22.11,3.68,41.26,7.68,82.13,8.67,123.33,1.08,44.88,3,89.65,4.8,134.4.14,3.43-.14,6.91-.02,10.34h-73.92c1.38-4.61-.91-8.55-1.79-12.85-3.22-15.8-5.47-31.37-7.93-47.27-.65-4.16-3.41-11.29-3.6-14.64-.37-6.33-.04-13-.6-19.56-1.54-17.96-4.13-35.9-5.7-53.82-1.61-18.31.18-36.76-1.91-54.73-.1-.9.13-5.4-.3-5.46l-1.59.81c-.77,5.35-1.05,10.87-2.06,16.18-.31,1.61-1.53,4.15-1.85,5.83-2.96,16.01-3.14,34.97-1.94,51.33.36,4.83,2.64,7.13-1.19,11.79-2.24,2.72-3.99,1.59-7.09,2.51-1.91.57-3.6,1.98-5.63,2.53-19.99,5.37-40.73,4.39-61.24,5-22.26.66-44.5.39-66.72.48-6.9.03-14.03-.9-21.08-.92-23.23-.05-48.9-3.94-72.01-6.74-9.43-1.15-18.71-2.71-28.04-4.39.22-1.93-2.43-1.68-3.68-3.25-1.37-1.73-.39-9.15-.17-11.76,1.61-19.2,4.05-38.68,1.88-58.11-.08-.76-.28-1.69-.47-2.44-.2-.8.48-1.4-.97-1.17-.09,1.34.14,2.74,0,4.07-1.36,12.35-1.82,24.71-3.3,37.02-1.71,14.19-3.87,28.32-4.86,42.66-.78,11.29-1.5,22.55-2.87,34.09-.42,3.5.39,4.8-1.04,8.56-2.99,7.88-9.15,16.59-11.42,25.06-.79,2.95-.59,6.09-1.2,8.88-.4,1.84-1.82,4.1-2.43,6.21-3.24,11.16-7.34,22.27-6.96,34.08h-63.84Z"/>
    </g>
  </g>
</svg>